<svg width="39" height="30" viewBox="0 0 39 30" fill="none" xmlns="http://www.w3.org/2000/svg">
<path d="M38.4876 6.76348L34.0016 20.7469C33.6661 21.7427 32.7857 22.4066 31.7376 22.4066H14.4224C13.4162 22.4066 12.4519 21.7842 12.1165 20.8714L5.49224 3.3195H1.67702C0.754658 3.3195 0 2.57261 0 1.65975C0 0.746888 0.754658 0 1.67702 0H6.66615C7.37888 0 8.00776 0.456431 8.25932 1.12033L15.0932 19.0871H31.0248L34.5885 7.88382H14.8416C13.9193 7.88382 13.1646 7.13693 13.1646 6.22407C13.1646 5.3112 13.9193 4.56431 14.8416 4.56431H36.8944C37.4394 4.56431 37.9425 4.85477 38.236 5.26971C38.5714 5.68465 38.6553 6.26556 38.4876 6.76348ZM15.2609 24.6058C14.5481 24.6058 13.8354 24.8963 13.3323 25.3942C12.8292 25.8921 12.5357 26.5975 12.5357 27.3029C12.5357 28.0083 12.8292 28.7137 13.3323 29.2116C13.8354 29.7095 14.5481 30 15.2609 30C15.9736 30 16.6863 29.7095 17.1894 29.2116C17.6925 28.7137 17.986 28.0083 17.986 27.3029C17.986 26.5975 17.6925 25.8921 17.1894 25.3942C16.6863 24.8963 15.9736 24.6058 15.2609 24.6058ZM30.3121 24.6058C29.5994 24.6058 28.8866 24.8963 28.3835 25.3942C27.8804 25.8921 27.587 26.5975 27.587 27.3029C27.587 28.0083 27.8804 28.7137 28.3835 29.2116C28.8866 29.7095 29.5994 30 30.3121 30C31.0248 30 31.7376 29.7095 32.2407 29.2116C32.7438 28.7137 33.0373 28.0083 33.0373 27.3029C33.0373 26.5975 32.7438 25.8921 32.2407 25.3942C31.7376 24.8963 31.0248 24.6058 30.3121 24.6058Z" fill="white"/>
</svg>
