<svg width="25" height="22" viewBox="0 0 25 22" fill="none" xmlns="http://www.w3.org/2000/svg">
<path d="M22.3936 2.33061C21.0873 1.01243 19.3557 0.207888 17.5116 0.0623146C15.6675 -0.0832592 13.8324 0.439732 12.3379 1.53682C10.77 0.363046 8.81842 -0.169198 6.8762 0.0472665C4.93399 0.263731 3.1454 1.21282 1.87061 2.70342C0.595825 4.19402 -0.0704679 6.1154 0.00590944 8.08064C0.0822868 10.0459 0.89566 11.909 2.28224 13.2948L9.9349 21.0095C10.5757 21.6442 11.4388 22 12.3379 22C13.237 22 14.1001 21.6442 14.7409 21.0095L22.3936 13.2948C23.8324 11.8378 24.64 9.86699 24.64 7.81272C24.64 5.75845 23.8324 3.78763 22.3936 2.33061ZM20.656 11.5832L13.0034 19.2855C12.9163 19.374 12.8126 19.4442 12.6984 19.4922C12.5842 19.5401 12.4617 19.5648 12.3379 19.5648C12.2142 19.5648 12.0916 19.5401 11.9774 19.4922C11.8632 19.4442 11.7595 19.374 11.6725 19.2855L4.0198 11.546C3.05337 10.5517 2.5122 9.21607 2.5122 7.82512C2.5122 6.43417 3.05337 5.09852 4.0198 4.10423C5.00461 3.12562 6.33282 2.57689 7.71674 2.57689C9.10066 2.57689 10.4289 3.12562 11.4137 4.10423C11.5282 4.22048 11.6645 4.31275 11.8147 4.37572C11.9649 4.43869 12.1259 4.47111 12.2886 4.47111C12.4513 4.47111 12.6124 4.43869 12.7625 4.37572C12.9127 4.31275 13.049 4.22048 13.1636 4.10423C14.1484 3.12562 15.4766 2.57689 16.8605 2.57689C18.2444 2.57689 19.5726 3.12562 20.5574 4.10423C21.5372 5.08549 22.0961 6.4139 22.1145 7.80489C22.1329 9.19588 21.6094 10.5388 20.656 11.546V11.5832Z" fill="#3CA674"/>
</svg>
