<svg width="30" height="30" viewBox="0 0 30 30" fill="none" xmlns="http://www.w3.org/2000/svg">
<path d="M15 0C6.71625 0 0 6.71625 0 15C0 23.2838 6.71625 30 15 30C23.2838 30 30 23.2838 30 15C30 6.71625 23.2838 0 15 0ZM15 28.125C7.7625 28.125 1.875 22.2375 1.875 15C1.875 7.7625 7.7625 1.875 15 1.875C22.2375 1.875 28.125 7.7625 28.125 15C28.125 22.2375 22.2375 28.125 15 28.125ZM15 5.625C14.5027 5.625 14.0258 5.82254 13.6742 6.17417C13.3225 6.52581 13.125 7.00272 13.125 7.5V16.875C13.125 17.3723 13.3225 17.8492 13.6742 18.2008C14.0258 18.5525 14.5027 18.75 15 18.75C15.4973 18.75 15.9742 18.5525 16.3258 18.2008C16.6775 17.8492 16.875 17.3723 16.875 16.875V7.5C16.875 7.00272 16.6775 6.52581 16.3258 6.17417C15.9742 5.82254 15.4973 5.625 15 5.625ZM13.125 22.47C13.125 22.9673 13.3225 23.4442 13.6742 23.7958C14.0258 24.1475 14.5027 24.345 15 24.345C15.4973 24.345 15.9742 24.1475 16.3258 23.7958C16.6775 23.4442 16.875 22.9673 16.875 22.47C16.875 22.2238 16.8265 21.98 16.7323 21.7525C16.638 21.525 16.4999 21.3183 16.3258 21.1442C16.1517 20.9701 15.945 20.832 15.7175 20.7377C15.49 20.6435 15.2462 20.595 15 20.595C14.7538 20.595 14.51 20.6435 14.2825 20.7377C14.055 20.832 13.8483 20.9701 13.6742 21.1442C13.5001 21.3183 13.362 21.525 13.2677 21.7525C13.1735 21.98 13.125 22.2238 13.125 22.47Z" fill="#A63C3C"/>
</svg>
