<svg width="34" height="30" viewBox="0 0 34 30" fill="none" xmlns="http://www.w3.org/2000/svg">
<path d="M30.9523 3.1781C29.1801 1.38058 26.8309 0.283484 24.329 0.0849744C21.8271 -0.113535 19.3376 0.599635 17.31 2.09566C15.1828 0.495063 12.5352 -0.230724 9.90021 0.0644543C7.26525 0.359633 4.83871 1.65385 3.10923 3.68648C1.37975 5.71912 0.475809 8.33918 0.579428 11.0191C0.683048 13.6989 1.78653 16.2396 3.66767 18.1293L14.0499 28.6493C14.9193 29.5149 16.0902 30 17.31 30C18.5298 30 19.7007 29.5149 20.5701 28.6493L30.9523 18.1293C32.9043 16.1425 34 13.455 34 10.6537C34 7.85243 32.9043 5.16494 30.9523 3.1781ZM28.595 15.7953L18.2128 26.2984C18.0947 26.4191 17.954 26.5148 17.7991 26.5802C17.6441 26.6456 17.4779 26.6793 17.31 26.6793C17.1421 26.6793 16.9759 26.6456 16.8209 26.5802C16.666 26.5148 16.5253 26.4191 16.4072 26.2984L6.02499 15.7446C4.71385 14.3887 3.97966 12.5674 3.97966 10.6706C3.97966 8.77387 4.71385 6.95253 6.02499 5.59668C7.36106 4.26221 9.16301 3.51394 11.0405 3.51394C12.9181 3.51394 14.72 4.26221 16.0561 5.59668C16.2115 5.7552 16.3964 5.88103 16.6002 5.96689C16.8039 6.05276 17.0224 6.09697 17.2431 6.09697C17.4638 6.09697 17.6824 6.05276 17.8861 5.96689C18.0898 5.88103 18.2747 5.7552 18.4301 5.59668C19.7662 4.26221 21.5682 3.51394 23.4457 3.51394C25.3232 3.51394 27.1252 4.26221 28.4613 5.59668C29.7904 6.93476 30.5487 8.74623 30.5737 10.643C30.5987 12.5398 29.8884 14.3711 28.595 15.7446V15.7953Z" fill="white"/>
</svg>
