<svg width="191" height="24" viewBox="0 0 191 24" fill="none" xmlns="http://www.w3.org/2000/svg">
<path d="M13.4 23.48C10.76 23.48 8.44 22.99 6.44 22.01C4.46 21.03 2.92 19.66 1.82 17.9C0.72 16.14 0.17 14.09 0.17 11.75C0.17 9.41 0.72 7.36 1.82 5.6C2.92 3.84 4.46 2.47 6.44 1.49C8.44 0.509999 10.76 0.019999 13.4 0.019999C16.04 0.019999 18.35 0.509999 20.33 1.49C22.33 2.47 23.88 3.84 24.98 5.6C26.1 7.36 26.66 9.41 26.66 11.75C26.66 14.09 26.1 16.14 24.98 17.9C23.88 19.66 22.33 21.03 20.33 22.01C18.35 22.99 16.04 23.48 13.4 23.48ZM13.4 18.41C14.96 18.41 16.3 18.15 17.42 17.63C18.54 17.09 19.4 16.32 20 15.32C20.62 14.32 20.93 13.13 20.93 11.75C20.93 10.37 20.62 9.18 20 8.18C19.4 7.18 18.54 6.42 17.42 5.9C16.3 5.36 14.96 5.09 13.4 5.09C11.86 5.09 10.53 5.36 9.41 5.9C8.29 6.42 7.42 7.18 6.8 8.18C6.18 9.18 5.87 10.37 5.87 11.75C5.87 13.13 6.18 14.32 6.8 15.32C7.42 16.32 8.29 17.09 9.41 17.63C10.53 18.15 11.86 18.41 13.4 18.41Z" fill="#3CA674"/>
<path d="M62.2681 0.499998V23H56.8681V2.48L58.1881 2.57L49.0381 23H43.2481L34.0981 2.63L35.4181 2.51V23H30.0181V0.499998H38.7481L47.2981 20.18H45.0181L53.5381 0.499998H62.2681ZM70.6892 18.47V13.88H86.2292V18.47H70.6892ZM82.2692 0.499998L92.6492 23H86.6192L77.7092 2.87H79.4492L70.5692 23H64.5092L74.9192 0.499998H82.2692ZM98.87 10.4H107.3C108.36 10.4 109.2 10.16 109.82 9.68C110.44 9.18 110.75 8.49 110.75 7.61C110.75 6.73 110.44 6.05 109.82 5.57C109.2 5.07 108.36 4.82 107.3 4.82H98.06L100.61 2.03V23H94.94V0.499998H108.05C109.73 0.499998 111.2 0.799999 112.46 1.4C113.72 2 114.7 2.83 115.4 3.89C116.1 4.95 116.45 6.19 116.45 7.61C116.45 9.01 116.1 10.24 115.4 11.3C114.7 12.36 113.72 13.19 112.46 13.79C111.2 14.39 109.73 14.69 108.05 14.69H98.87V10.4ZM102.5 12.47H108.89L117.17 23H110.6L102.5 12.47ZM120.135 23V0.499998H125.775V18.44L124.245 17.3L137.565 0.499998H143.565L125.235 23H120.135ZM130.905 12.11L134.985 8.6L143.865 23H137.445L130.905 12.11ZM164.876 9.65V13.85H148.586V9.65H164.876ZM152.426 11.75L150.926 21.05L148.556 18.35H165.836V23H145.256L146.996 11.75L145.256 0.499998H165.686V5.15H148.556L150.926 2.45L152.426 11.75ZM176.376 3.02H182.046V23H176.376V3.02ZM167.616 0.499998H190.806V5.51H167.616V0.499998Z" fill="white"/>
</svg>
